<?xml version="1.0" encoding="utf-8"?>
<!-- Generator: Adobe Illustrator 24.1.1, SVG Export Plug-In . SVG Version: 6.00 Build 0)  -->
<svg version="1.1" id="Layer_1" xmlns="http://www.w3.org/2000/svg" xmlns:xlink="http://www.w3.org/1999/xlink" x="0px" y="0px"
	 viewBox="0 0 37.97 40" style="enable-background:new 0 0 37.97 40;" width="43" height="45" xml:space="preserve">
<style type="text/css">
	.st0{fill:#FFFFFF;}
</style>
<g>
	<path class="st0" d="M4.03,16.02c-0.78,0.8-1.5,1.64-2.05,2.61c-0.62,1.1-0.89,2.27-0.81,3.53c0.02,0.26,0.07,0.33,0.34,0.2
		c0.8-0.37,1.68-0.55,2.43-1.05c0.36-0.24,0.75-0.43,1.17-0.54c0.16-0.04,0.31-0.07,0.47-0.06c0.76,0.01,1.52-0.02,2.26-0.25
		c0.51-0.16,0.95-0.45,1.42-0.67c0.28-0.13,0.56-0.22,0.87-0.29c0,0.21-0.15,0.32-0.26,0.44c-0.49,0.54-1.04,1.02-1.5,1.59
		c-0.11,0.14-0.23,0.28-0.31,0.44c-0.15,0.29-0.05,0.47,0.28,0.49c0.31,0.02,0.61,0.01,0.91-0.08c0.53-0.16,0.97,0.03,1.36,0.38
		c0.04,0.03,0.08,0.09,0.08,0.13c-0.01,0.08-0.1,0.07-0.16,0.07c-1.38,0.06-2.64,0.6-3.91,1.05c-0.56,0.2-1.12,0.29-1.71,0.26
		c-1-0.05-1.95-0.33-2.89-0.64c-0.15-0.05-0.35-0.17-0.48-0.08c-0.14,0.1-0.01,0.3,0.03,0.44c0.54,1.88,1.34,3.64,2.46,5.24
		c0.05,0.07,0.1,0.14,0.15,0.21c0.23,0.31,0.2,0.45-0.14,0.63c-0.14,0.07-0.19-0.02-0.25-0.1c-0.9-1.18-1.64-2.45-2.24-3.81
		c-0.54-1.23-0.94-2.51-1.2-3.82c-0.15-0.73-0.26-1.46-0.29-2.2c-0.03-0.75-0.05-1.5-0.02-2.25c0.04-1.18,0.22-2.33,0.49-3.48
		c0.4-1.71,1.04-3.32,1.92-4.83c1.96-3.4,4.73-5.94,8.26-7.66c1.22-0.6,2.5-1.05,3.83-1.36c0.91-0.21,1.85-0.34,2.78-0.45
		C17.87,0.05,18.44,0,19.02,0c1.16,0,2.31,0.19,3.45,0.38c1.37,0.22,2.69,0.63,3.96,1.17c2.99,1.27,5.51,3.18,7.53,5.73
		c1.23,1.55,2.19,3.26,2.87,5.12c0.46,1.25,0.76,2.54,0.95,3.86c0.21,1.51,0.25,3.02,0.07,4.53c-0.29,2.5-1.04,4.86-2.29,7.06
		c-0.43,0.76-0.92,1.49-1.45,2.19c-0.1,0.13-0.18,0.24-0.34,0.06c-0.11-0.13-0.38-0.17-0.16-0.46c1.18-1.58,2.03-3.33,2.62-5.21
		c0.07-0.22,0.12-0.45,0.17-0.67c0.02-0.06,0.06-0.12-0.01-0.17c-0.06-0.04-0.12,0-0.18,0.03c-0.26,0.16-0.52,0.32-0.78,0.49
		c-0.2,0.13-0.41,0.22-0.63,0.3c-0.24,0.09-0.34,0.02-0.32-0.25c0.01-0.12,0.05-0.25,0.08-0.37c0.04-0.15,0.01-0.27-0.12-0.36
		c-0.11-0.09-0.22-0.09-0.35-0.04c-0.29,0.12-0.52,0.33-0.72,0.56c-0.59,0.67-1.31,0.99-2.22,0.93c-0.6-0.04-1.2,0.04-1.76,0.3
		c-0.14,0.06-0.2,0.01-0.18-0.14c0.02-0.18,0.11-0.32,0.22-0.45c0.18-0.2,0.36-0.39,0.56-0.56c0.72-0.6,0.68-1.38,0.55-2.18
		c-0.12-0.72-0.56-1.16-1.27-1.34c-0.19-0.05-0.36-0.07-0.5,0.08c-0.13,0.14-0.05,0.29,0.02,0.44c0.07,0.15,0.13,0.31,0.19,0.47
		c0.07,0.18-0.01,0.24-0.18,0.2c-0.07-0.01-0.14-0.05-0.21-0.07c-0.29-0.12-0.58-0.26-0.91-0.12c-0.15,0.06-0.31-0.02-0.42-0.1
		c-0.9-0.68-1.73-1.43-2.24-2.46c-0.1-0.2-0.14-0.45-0.17-0.67c-0.06-0.54-0.22-1.03-0.52-1.48c-0.41-0.62-0.65-1.3-0.73-2.03
		c-0.04-0.4-0.23-0.72-0.5-1c-0.24-0.25-0.5-0.49-0.75-0.73c-0.17-0.16-0.33-0.33-0.49-0.5c-0.06-0.07-0.16-0.16-0.1-0.28
		c0.06-0.1,0.17-0.06,0.26-0.06c0.63-0.05,1.17,0.22,1.69,0.54c0.09,0.05,0.2,0.15,0.28,0.06c0.08-0.08-0.04-0.19-0.08-0.28
		c-0.22-0.4-0.58-0.63-0.97-0.84c-0.33-0.18-0.67-0.36-0.99-0.55c-0.37-0.21-0.62-0.49-0.75-0.92c-0.16-0.51-0.64-0.8-1.03-1.13
		c-0.11-0.09-0.29-0.04-0.44-0.04c-0.07,0.04-0.13,0.03-0.17-0.04c0-0.32,0.22-0.29,0.42-0.26c0.53,0.08,0.99,0.32,1.4,0.64
		c0.75,0.58,1.6,1,2.47,1.37c0.79,0.33,1.62,0.57,2.38,0.97c0.77,0.39,1.36,0.97,1.69,1.78c0.28,0.68,0.77,1.18,1.36,1.6
		c0.77,0.54,1.62,0.96,2.45,1.41c0.55,0.3,1.04,0.69,1.49,1.12c0.42,0.4,0.81,0.85,1.39,1.04c0.7,0.22,1.34,0.08,1.92-0.34
		c0.2-0.14,0.22-0.35,0.2-0.57c-0.12-1-0.3-1.99-0.58-2.95c-0.7-2.36-1.84-4.48-3.45-6.35c-2.24-2.6-5-4.42-8.28-5.44
		c-1.32-0.41-2.66-0.69-4.04-0.76c-0.42-0.02-0.84-0.03-1.26-0.1c-0.38-0.06-0.76,0.04-1.14,0.06c-1,0.05-2,0.18-2.98,0.4
		c-1.36,0.3-2.67,0.74-3.93,1.33C9.59,4.62,8.24,5.52,7,6.59c-2.14,1.85-3.72,4.1-4.77,6.72c-0.49,1.22-0.84,2.49-1,3.8
		c-0.04,0.32-0.16,0.63-0.09,0.98c0.15-0.02,0.22-0.14,0.3-0.22c0.68-0.69,1.39-1.36,2.19-1.93c0.11-0.08,0.22-0.18,0.37-0.16
		C4.17,15.85,4.07,15.94,4.03,16.02z"/>
	<path class="st0" d="M20.1,34.02c0,1.93,0,3.86,0,5.78c0,0.23-0.03,0.34-0.3,0.33c-0.63-0.02-1.27-0.01-1.91,0
		c-0.21,0-0.27-0.06-0.27-0.27c0.01-3.91,0.01-7.82,0-11.72c0-0.23,0.08-0.29,0.29-0.29c0.62,0.01,1.25,0.02,1.87,0
		c0.27-0.01,0.31,0.09,0.31,0.33C20.09,30.12,20.1,32.07,20.1,34.02z"/>
	<path class="st0" d="M18.53,13.29c0.08,0.01,0.17,0.01,0.25,0.02c0.17,0.02,0.21,0.11,0.1,0.23c-0.18,0.22-0.28,0.47-0.37,0.73
		c-0.11,0.3-0.32,0.52-0.58,0.69c-0.02,0.01-0.03,0.03-0.05,0.04c-1.21,0.65-0.94,1.61-0.3,2.39c0.52,0.65,1.21,1.11,1.9,1.57
		c0.64,0.43,1.3,0.84,1.66,1.57c0.16,0.32,0.27,0.67,0.43,0.98c0.42,0.8,1.01,1.36,2.01,1.34c0.41-0.01,0.85,0.03,1.23,0.23
		c0.07,0.04,0.14,0.1,0.2,0.15c0.13,0.12,0.13,0.19-0.07,0.25c-0.38,0.11-0.78,0.08-1.15,0.21c-0.3,0.1-0.6,0.19-0.9,0.27
		c-0.6,0.16-1.19,0.07-1.79-0.02c-0.47-0.08-0.88,0.05-1.21,0.41c-0.22,0.24-0.5,0.34-0.82,0.36c-1.1,0.08-2.2-0.03-3.29-0.21
		c-0.27-0.04-0.55-0.03-0.8-0.18c-0.21-0.13-0.22-0.25,0-0.36c0.29-0.15,0.62-0.18,0.94-0.25c0.61-0.12,1.23-0.17,1.83-0.35
		c0.4-0.12,0.75-0.35,1-0.69c0.22-0.3,0.49-0.53,0.8-0.71c0.09-0.05,0.18-0.11,0.26-0.19c0.15-0.15,0.33-0.3,0.23-0.54
		c-0.11-0.25-0.28-0.45-0.58-0.48c-0.67-0.07-0.71-0.07-0.85-0.71c-0.12-0.52-0.4-0.9-0.79-1.23c-0.56-0.47-1.11-0.96-1.57-1.52
		c-0.62-0.75-1.39-1.14-2.34-1.21c-0.17-0.01-0.42,0-0.44-0.21c-0.01-0.17,0.23-0.25,0.38-0.28c1.13-0.25,2.11-0.83,3.08-1.42
		c0.31-0.18,0.58-0.42,0.86-0.64C18.01,13.36,18.25,13.26,18.53,13.29z"/>
	<path class="st0" d="M19.6,8.95c0.03,0.06,0.09,0.08,0.15,0.08c-0.3,0.3-0.5,0.68-0.74,1.03c-0.48,0.7-1.24,1.03-1.91,1.49
		c-0.72,0.49-1.47,0.95-1.94,1.7c-0.32,0.52-0.75,0.9-1.27,1.19c-0.67,0.38-1.2,0.93-1.77,1.43c-0.65,0.57-1.28,1.19-1.99,1.68
		c-0.69,0.47-1.28,1.06-2.02,1.45c-0.41,0.21-0.87,0.23-1.3,0.39c-0.56,0.21-1.12,0.42-1.68,0.63c-0.1,0.04-0.21,0.1-0.29,0
		c-0.09-0.11-0.03-0.21,0.03-0.32c0.24-0.4,0.53-0.77,0.84-1.11c0.47-0.51,0.31-1.11,0.34-1.68c0.01-0.12-0.1-0.18-0.2-0.22
		c-0.31-0.1-0.41-0.34-0.43-0.63C5.4,15.8,5.45,15.5,5.17,15.38c-0.26-0.11-0.45,0.13-0.64,0.25c-0.18,0.12-0.34,0.25-0.51,0.38
		c-0.02-0.06,0.08-0.14-0.02-0.2c0.23-0.33,0.54-0.55,0.91-0.68c0.1-0.04,0.21,0,0.31,0.04c0.18,0.08,0.36,0.18,0.52,0.3
		c0.54,0.43,1.14,0.77,1.72,1.14c0.43,0.28,0.93,0.34,1.41,0.47c0.16,0.05,0.28-0.08,0.39-0.17c0.9-0.74,1.85-1.41,2.75-2.15
		c0.41-0.34,0.9-0.56,1.36-0.81c0.36-0.2,0.7-0.42,0.93-0.79c0.47-0.71,1.2-1.12,1.9-1.55c0.67-0.41,1.39-0.72,2.03-1.19
		c0.41-0.3,0.72-0.68,0.97-1.12C19.31,9.18,19.36,8.97,19.6,8.95z"/>
	<path class="st0" d="M35.22,33.57c-0.18-0.11-0.33-0.27-0.49-0.4c-2.32-1.93-4.62-3.87-7-5.72c-0.58-0.45-1.17-0.87-1.87-0.86
		c-1.39,0.07-2.89,1.01-2.69,2.89c0.09,0.83,0.19,1.66,0.29,2.49c0.09,0.74,0.18,1.49,0.29,2.23c0.15,1.09,0.31,2.18,0.47,3.26
		c0.1,0.67,0.19,1.34,0.29,2.01c0.03,0.17,0.05,0.33,0.32,0.24c0.63-0.22,1.26-0.41,1.89-0.6c0.19-0.06,0.24-0.15,0.2-0.35
		c-0.16-0.86-0.3-1.73-0.44-2.59c-0.03-0.18,0.02-0.27,0.22-0.34c1.57-0.51,3-1.27,4.26-2.34c0.17-0.14,0.27-0.12,0.42,0.01
		c0.67,0.59,1.35,1.16,2.01,1.75c0.14,0.12,0.24,0.12,0.38,0c0.48-0.41,0.96-0.83,1.46-1.22C35.49,33.85,35.47,33.74,35.22,33.57z
		 M29.22,32.01c-0.85,0.76-1.83,1.26-2.92,1.58c-0.15,0.05-0.21-0.02-0.23-0.17c-0.11-0.69-0.24-1.37-0.35-2.06
		c-0.1-0.61-0.19-1.23-0.28-1.85c0.01,0,0.01,0,0.02,0c0-0.1-0.01-0.19,0-0.29c0.03-0.26,0.23-0.37,0.48-0.3
		c0.18,0.06,0.32,0.17,0.45,0.29c0.94,0.8,1.88,1.62,2.82,2.42C29.37,31.78,29.38,31.87,29.22,32.01z"/>
	<path class="st0" d="M11.84,26.59c-0.59,0-1.09,0.24-1.54,0.58c-0.84,0.64-1.68,1.29-2.49,1.96c-1.82,1.49-3.62,2.99-5.44,4.47
		c-0.2,0.16-0.19,0.24,0,0.39c0.5,0.4,0.98,0.8,1.46,1.22c0.17,0.15,0.28,0.15,0.45,0c0.65-0.58,1.31-1.14,1.97-1.7
		c0.11-0.09,0.19-0.21,0.37-0.06c1.3,1.09,2.75,1.89,4.37,2.39c0.15,0.05,0.18,0.12,0.16,0.25c-0.06,0.31-0.12,0.62-0.17,0.93
		c-0.1,0.57-0.19,1.15-0.29,1.72c-0.03,0.18,0,0.3,0.21,0.36c0.64,0.19,1.27,0.39,1.89,0.59c0.2,0.06,0.25,0.02,0.28-0.18
		c0.12-0.9,0.26-1.8,0.39-2.7c0.11-0.78,0.23-1.57,0.34-2.35c0.1-0.71,0.2-1.42,0.3-2.14c0.14-1.01,0.29-2.01,0.34-2.79
		C14.49,27.73,13.38,26.58,11.84,26.59z M12.2,29.59c-0.09,0.58-0.18,1.22-0.29,1.87c-0.11,0.65-0.23,1.29-0.32,1.94
		c-0.03,0.21-0.11,0.25-0.29,0.19c-1.04-0.31-1.98-0.82-2.81-1.52c-0.21-0.18-0.24-0.29,0-0.48c0.93-0.77,1.84-1.56,2.75-2.35
		c0.06-0.05,0.13-0.11,0.2-0.15c0.18-0.11,0.34-0.26,0.58-0.14C12.25,29.08,12.2,29.3,12.2,29.59z"/>
</g>
</svg>
