<svg height="512" viewBox="0 0 64 64" width="512" xmlns="http://www.w3.org/2000/svg"><g id="Insurance"><path d="m61 57h-44v-52a2 2 0 0 1 2-2h30l12 12z" fill="#fee9ab"/><path d="m55 33v6a6.641 6.641 0 0 1 -2.05 4.81l-6.95 7.19-6.95-7.19a6.641 6.641 0 0 1 -2.05-4.81v-6l9-4z" fill="#ffe477"/><path d="m55 33v6a6.641 6.641 0 0 1 -2.05 4.81l-6.95 7.19-2-2.07 4.95-5.12a6.641 6.641 0 0 0 2.05-4.81v-6l-7-3.11 2-.89z" fill="#ffd422"/><path d="m29 57v4h-6v-6h4 2z" fill="#ffcd00"/><path d="m29 43v6h-2-4v-6h4z" fill="#ffcd00"/><path d="m29 31v6h-2-4v-6z" fill="#ffcd00"/><path d="m27 49v6h-4-2v-6h2z" fill="#ffde55"/><path d="m27 37v6h-4-2v-6h2z" fill="#ffde55"/><path d="m23.71 9.05a12 12 0 1 1 -6.71-2.05 11.985 11.985 0 0 1 6.71 2.05z" fill="#ffd422"/><path d="m23 55v6h-6v-6h4z" fill="#ffde55"/><path d="m23 43v6h-2-4v-6h4z" fill="#ffde55"/><path d="m23 31v6h-2-4v-6z" fill="#ffde55"/><g fill="#ffcd00"><path d="m21 49v6h-4-2v-6h2z"/><path d="m21 37v6h-4-2v-6h2z"/><path d="m17 55v6h-6v-6h4z"/><path d="m17 43v6h-2-4v-6h4z"/><path d="m17 31v6h-2-4v-6z"/></g><g fill="#ffde55"><path d="m15 49v6h-4-2v-6h2z"/><path d="m15 37v6h-4-2v-6h2z"/><path d="m11 55v6h-6v-6h4z"/><path d="m11 43v6h-2-4v-6h4z"/><path d="m11 31v6h-2-4v-6z"/></g><path d="m9 49v6h-4-2v-6h2z" fill="#ffcd00"/><path d="m9 37v6h-4-2v-6h2z" fill="#ffcd00"/><path d="m29 19a11.988 11.988 0 0 1 -14 11.83 12 12 0 0 0 0-23.66 11.988 11.988 0 0 1 14 11.83z" fill="#ebbf00"/><path d="m57 15h4v42h-4z" fill="#ffd422"/><path d="m49 3.01 11.95 11.99h-9.95a2.006 2.006 0 0 1 -2-2z" fill="#ff7956"/><path d="m61.71 14.34-12.02-12.05a1.009 1.009 0 0 0 -.7-.29h-29.99a3.009 3.009 0 0 0 -3 3v1.05a12.98 12.98 0 0 0 -5.9 23.95h-5.1a1 1 0 0 0 -1 1v5h-1a1 1 0 0 0 -1 1v6a1 1 0 0 0 1 1h1v4h-1a1 1 0 0 0 -1 1v6a1 1 0 0 0 1 1h1v5a1 1 0 0 0 1 1h24a1 1 0 0 0 1-1v-3h29a3.009 3.009 0 0 0 3-3v-39.95a.99.99 0 0 0 -.29-.71zm-11.71-8.91 8.54 8.57h-7.54a1 1 0 0 1 -1-1zm-44 13.57a11 11 0 1 1 11 11 11.007 11.007 0 0 1 -11-11zm20 19v4h-4v-4zm-2-2v-4h4v4zm4 8v4h-4v-4zm-6-8h-4v-4h4zm-6 2h4v4h-4zm-4-2v-4h4v4zm6 8h4v4h-4zm-4-6v4h-4v-4zm2 6v4h-4v-4zm-10-12h4v4h-4zm-2 6h4v4h-4zm6 6v4h-4v-4zm-6 10v-4h4v4zm6 6h-4v-4h4zm0-10h4v4h-4zm6 10h-4v-4h4zm0-10h4v4h-4zm6 10h-4v-4h4zm0-10h4v4h-4zm6 10h-4v-4h4zm32-5a1 1 0 0 1 -1 1h-29v-1a1 1 0 0 0 -1-1h-1v-4h1a1 1 0 0 0 1-1v-6a1 1 0 0 0 -1-1h-1v-4h1a1 1 0 0 0 1-1v-6a1 1 0 0 0 -1-1h-5.1a12.959 12.959 0 0 0 2.46-20h3.64v-2h-4v1.64a12.953 12.953 0 0 0 -8-3.59v-1.05a1 1 0 0 1 1-1h29v9a3.009 3.009 0 0 0 3 3h9z"/><path d="m32 8h14v2h-14z"/><path d="m32 12h14v2h-14z"/><path d="m38 18h4v2h-4z"/><path d="m44 18h14v2h-14z"/><path d="m38 22h4v2h-4z"/><path d="m44 22h14v2h-14z"/><path d="m17 14a2 2 0 0 1 2 2h2a4 4 0 0 0 -3-3.858v-2.142h-2v2.142a3.992 3.992 0 0 0 1 7.858 2 2 0 1 1 -2 2h-2a4 4 0 0 0 3 3.858v2.142h2v-2.142a3.992 3.992 0 0 0 -1-7.858 2 2 0 0 1 0-4z"/><path d="m43.878 37.464-1.414 1.414 2.829 2.829a1 1 0 0 0 1.414 0l5.657-5.657-1.414-1.414-4.95 4.95z"/><path d="m55.41 32.09-9-4a.979.979 0 0 0 -.82 0l-9 4a.987.987 0 0 0 -.59.91v6a7.6 7.6 0 0 0 2.34 5.51l6.94 7.18a.991.991 0 0 0 1.44 0l6.94-7.18a7.583 7.583 0 0 0 2.34-5.51v-6a.987.987 0 0 0 -.59-.91zm-1.41 6.91a5.655 5.655 0 0 1 -1.77 4.11l-6.23 6.45-6.23-6.45-.01-.01a5.645 5.645 0 0 1 -1.76-4.1v-5.35l8-3.56 8 3.56z"/></g></svg>