<?xml version="1.0" encoding="iso-8859-1"?>
<!-- Generator: Adobe Illustrator 19.0.0, SVG Export Plug-In . SVG Version: 6.00 Build 0)  -->
<svg version="1.1" id="Capa_1" xmlns="http://www.w3.org/2000/svg" xmlns:xlink="http://www.w3.org/1999/xlink" x="0px" y="0px"
	 viewBox="0 0 511.999 511.999" style="enable-background:new 0 0 511.999 511.999;" xml:space="preserve">
<path style="fill:#E4EAF8;" d="M311.656,256.126H110.865H54.07v142.109v72.108h314.382c0-5.679,0-210.573,0-214.217L311.656,256.126
	L311.656,256.126z"/>
<polygon style="fill:#D8DCE5;" points="74.07,256.126 54.07,256.126 54.07,398.235 54.07,470.343 74.07,470.343 74.07,398.235 "/>
<path style="fill:#C3C8D1;" d="M321.004,227.49H30.885v24.112c0,4.3,3.486,7.785,7.785,7.785h282.334V227.49z"/>
<path style="fill:#B1B5BC;" d="M50.885,251.602V227.49H30.885v24.112c0,4.3,3.486,7.785,7.785,7.785h20.001
	C54.372,259.387,50.885,255.902,50.885,251.602z"/>
<path style="fill:#FF5050;" d="M413.405,208.263L342.47,100.935c-2.352-4.804-7.235-7.851-12.586-7.851H153.033v0.08H92.69
	c-0.535,0-1.063-0.023-1.586,0.036l0,0c-4.682,0.552-8.895,3.517-11,7.815L9.169,208.343c-4.557,9.309,2.22,20.174,12.586,20.174
	h289.901v-0.08h89.165C411.185,228.437,417.964,217.573,413.405,208.263z"/>
<path style="fill:#ED3A3A;" d="M29.17,208.343l70.935-107.328c2.138-4.366,6.392-7.271,11-7.815l0,0
	c0.523-0.06,1.051-0.036,1.586-0.036H92.69c-0.535,0-1.063-0.023-1.586,0.036l0,0c-4.682,0.552-8.895,3.517-11,7.815L9.169,208.343
	c-4.557,9.309,2.22,20.174,12.586,20.174h20.001C31.39,228.517,24.612,217.653,29.17,208.343z"/>
<path style="fill:#707487;" d="M225.756,325.14H196.82c-15.419,0-28.035,12.616-28.035,28.035v117.168h85.005V353.175
	C253.791,337.756,241.174,325.14,225.756,325.14z"/>
<path style="fill:#5B5D6E;" d="M216.82,325.14h-20.001c-15.419,0-28.035,12.616-28.035,28.035v117.168h20.001V353.175
	C188.786,337.756,201.402,325.14,216.82,325.14z"/>
<path style="fill:#707487;" d="M324.244,387.512h-29.61c-3.038,0-5.5-2.462-5.5-5.5v-52.102c0-3.038,2.462-5.5,5.5-5.5h29.61
	c3.038,0,5.5,2.462,5.5,5.5v52.102C329.744,385.049,327.281,387.512,324.244,387.512z"/>
<path style="fill:#5B5D6E;" d="M309.438,382.011v-52.102c0-3.038,2.462-5.5,5.5-5.5h-20.306c-3.037,0-5.5,2.462-5.5,5.5v52.102
	c0,3.038,2.463,5.5,5.5,5.5h20.306C311.901,387.512,309.438,385.049,309.438,382.011z"/>
<path style="fill:#707487;" d="M125.895,387.512h-29.61c-3.038,0-5.5-2.462-5.5-5.5v-52.102c0-3.038,2.462-5.5,5.5-5.5h29.61
	c3.038,0,5.5,2.462,5.5,5.5v52.102C131.395,385.049,128.932,387.512,125.895,387.512z"/>
<path style="fill:#5B5D6E;" d="M111.089,382.011v-52.102c0-3.038,2.462-5.5,5.5-5.5H96.284c-3.037,0-5.5,2.462-5.5,5.5v52.102
	c0,3.038,2.463,5.5,5.5,5.5h20.306C113.552,387.512,111.089,385.049,111.089,382.011z"/>
<path style="fill:#FFC850;" d="M404.077,415.978c-55.75-16.148-92.421-67.479-92.421-124.005v-76.337
	c0-4.943,5.34-8.058,9.643-5.628c21.175,11.961,41.214,12.127,59.56,0.492c14.024-8.893,21.729-21.373,21.805-21.498
	c2.517-4.13,8.52-4.124,11.036-0.006c1.3,2.11,31.206,49.349,81.369,21.012c4.303-2.431,9.643,0.686,9.643,5.628v76.337
	c0,56.851-36.971,107.944-92.42,124.004C408.111,417.188,408.278,417.194,404.077,415.978z"/>
<g>
	<path style="fill:#F9B938;" d="M418.462,195.46c-2.863-3.448-4.48-6.008-4.76-6.464c-2.521-4.127-8.524-4.114-11.036,0.006
		c-4.076,6.71-18.809,24.59-39.928,29.037C384.676,222.434,404.172,212.48,418.462,195.46z"/>
	<path style="fill:#F9B938;" d="M332.27,291.973v-76.337c0-0.15,0.019-0.296,0.029-0.444c-3.63-1.37-7.297-3.093-11-5.184
		c-4.304-2.431-9.643,0.687-9.643,5.628v76.337c0,56.598,36.745,107.879,92.421,124.005c4.213,1.22,4.045,1.207,8.216,0
		c2.092-0.606,4.153-1.28,6.198-1.985C367.708,396.474,332.27,347.962,332.27,291.973z"/>
</g>
<path style="fill:#E4EAF8;" d="M329.168,161.151h-57.491c-1.179,0-2.135-0.956-2.135-2.135V42.005h61.929v116.843
	C331.47,160.12,330.44,161.151,329.168,161.151z"/>
<path style="fill:#D8DCE5;" d="M289.079,159.065V42.005h-19.538v117.06c0,1.152,0.934,2.086,2.086,2.086h19.538
	C290.013,161.151,289.079,160.217,289.079,159.065z"/>
<path style="fill:#C3C8D1;" d="M339.742,49.506h-78.237c-4.142,0-7.5-3.358-7.5-7.5s3.358-7.5,7.5-7.5h78.237
	c4.142,0,7.5,3.358,7.5,7.5S343.884,49.506,339.742,49.506z"/>
<path d="M125.21,317.466H96.54c-7.168,0-13.001,5.832-13.001,13.001v50.64c0,7.168,5.832,13.001,13.001,13.001h28.669
	c7.168,0,13.001-5.832,13.001-13.001v-50.64C138.21,323.298,132.378,317.466,125.21,317.466z M123.209,379.106H98.54v-46.64h24.669
	V379.106z"/>
<path d="M448.462,268.033l-53.676,54.742l-18.489-19.345c-2.862-2.995-7.611-3.104-10.604-0.24
	c-2.995,2.862-3.103,7.609-0.24,10.604l23.843,24.946c2.929,3.063,7.81,3.093,10.777,0.068l59.1-60.273
	c2.899-2.958,2.853-7.706-0.104-10.606C456.112,265.032,451.363,265.074,448.462,268.033z"/>
<path d="M504.499,279.07c4.143,0,7.5-3.357,7.5-7.5v-56.108c0-10.681-11.518-17.417-20.833-12.159
	c-18.345,10.362-35.638,10.716-51.398,1.049c-12.567-7.707-19.603-18.987-19.883-19.442c-2.557-4.183-7.009-6.679-11.914-6.679
	c-0.003,0-0.006,0-0.009,0c-1.751,0.001-3.443,0.326-5.012,0.924l-54.254-82.088c-2.209-4.247-5.717-7.553-9.94-9.523V49.332h0.771
	c4.143,0,7.5-3.358,7.5-7.5s-3.357-7.5-7.5-7.5c-7.934,0-71.266,0-78.238,0c-4.143,0-7.5,3.358-7.5,7.5s3.357,7.5,7.5,7.5h0.538
	v36.157h-32.072c-4.142,0-7.5,3.358-7.5,7.5c0,4.142,3.358,7.5,7.5,7.5h32.072c0,6.941,0,51.428,0,58.351
	c0,5.313,4.322,9.635,9.635,9.635h57.491c5.404,0,9.802-4.397,9.802-9.802c0-5.052,0-43.607,0-49.444l53.438,80.855
	c-17.855,21.553-40.935,28.178-67.421,13.217c-9.319-5.262-20.832,1.485-20.832,12.159v5.382c-2.984,0-275.565,0-282.402,0
	c-4.722,0-7.785-4.826-6.015-9.012l70.622-106.854c0.178-0.269,0.338-0.548,0.479-0.837c1.085-2.217,3.381-3.649,5.85-3.649h102.277
	c4.142,0,7.5-3.358,7.5-7.5c0-4.142-3.358-7.5-7.5-7.5H92.476c-7.974,0-15.404,4.526-19.081,11.575L2.697,204.033
	c-0.178,0.269-0.338,0.549-0.479,0.838c-7.002,14.305,3.425,30.972,19.322,30.972h1.63v15.835c0,8.29,6.745,15.036,15.036,15.036
	h8.149v195.954H27.815c-4.142,0-7.5,3.357-7.5,7.5c0,4.143,3.358,7.5,7.5,7.5c15.691,0,352.346,0,368.879,0
	c4.143,0,7.5-3.357,7.5-7.5c0-4.143-3.357-7.5-7.5-7.5h-20.957v-50.237c8.211,4.382,16.916,7.934,26.039,10.576l0.112,0.032
	c5.341,1.547,6.8,1.556,11.965,0.058l0.313-0.09c54.389-15.756,91.034-62.959,96.948-115.599c0.463-4.116-2.499-7.828-6.615-8.291
	c-4.13-0.47-7.828,2.5-8.291,6.615c-5.242,46.653-37.69,88.809-86.214,102.865l-0.315,0.091c-0.617,0.179-1.297,0.376-1.702,0.478
	c-0.434-0.106-1.185-0.324-1.915-0.535l-0.113-0.033c-42.09-12.189-72.51-45.812-82.948-85.423
	c-2.67-10.132-4.058-20.648-4.058-31.377c0-22.264,0-50.064,0-74.58c35.102,18.97,69.313,5.938,89.026-23.126
	c2.657,3.949,10.832,14.996,23.958,23.046c14.018,8.6,36.596,15.477,65.073,0.08v54.352
	C496.999,275.712,500.357,279.07,504.499,279.07z M323.756,49.332c0,19.44,0,84.674,0,104.144h-46.928c0-15.362,0-89.041,0-104.144
	H323.756z M321.559,359.189v19.917H296.89v-46.64h13.168C313.009,342.029,317.023,351.155,321.559,359.189z M38.171,251.678v-15.835
	h265.771v15.869L38.171,251.678z M176.071,462.668V353c0-11.322,9.211-20.534,20.535-20.534h28.935
	c11.323,0,20.535,9.211,20.535,20.534v109.668H176.071z M360.736,462.668h-99.66V353c0-19.594-15.941-35.534-35.535-35.534h-28.935
	c-19.594,0-35.535,15.941-35.535,35.534v109.668H61.355V266.714h242.586v25.084v0.001c0,8.705,0.824,17.283,2.4,25.667h-10.891
	c-7.478,0-13.562,6.083-13.562,13.562v49.519c0,7.478,6.083,13.562,13.562,13.562h27.548c7.426,0,13.471-6.001,13.554-13.409
	c7.074,8.348,14.943,15.733,24.186,22.379v59.589H360.736z"/>
<g>
</g>
<g>
</g>
<g>
</g>
<g>
</g>
<g>
</g>
<g>
</g>
<g>
</g>
<g>
</g>
<g>
</g>
<g>
</g>
<g>
</g>
<g>
</g>
<g>
</g>
<g>
</g>
<g>
</g>
</svg>
