<?xml version="1.0"?>
<svg xmlns="http://www.w3.org/2000/svg" viewBox="0 0 64 64" width="512" height="512"><g id="Medical_insurance" data-name="Medical insurance"><path d="M44,3a16.8,16.8,0,0,0-7.95,2A17.377,17.377,0,0,0,32,8a17.377,17.377,0,0,0-4.05-3A16.8,16.8,0,0,0,20,3,17,17,0,0,0,3,20C3,33.44,17.51,45.38,26,51.21,29.52,53.63,32,55,32,55s2.48-1.37,6-3.79C46.49,45.38,61,33.44,61,20A17,17,0,0,0,44,3Z" style="fill:#d80027"/><path d="M61,20c0,13.44-14.51,25.38-23,31.21C34.48,53.63,32,55,32,55s-.95-.52-2.5-1.5c.96-.59,2.16-1.37,3.5-2.29C41.49,45.38,56,33.44,56,20A16.991,16.991,0,0,0,41.51,3.19,15.692,15.692,0,0,1,44,3,17,17,0,0,1,61,20Z" style="fill:#ab2300"/><path d="M61,27V39a13.615,13.615,0,0,1-4.1,9.76L45,61l-8.52-8.77L33.1,48.76A13.615,13.615,0,0,1,29,39V27l16-6,14.88,5.58Z" style="fill:#ff7956"/><path d="M57,30v8.86a9.991,9.991,0,0,1-2.93,7.07L45,55l-9.07-9.07A9.991,9.991,0,0,1,33,38.86V30l12-5Z" style="fill:#ffde55"/><path d="M61,27V39a13.615,13.615,0,0,1-4.1,9.76L45,61l-2-2.06,9.9-10.18A13.615,13.615,0,0,0,57,39V27L43,21.75,45,21Z" style="fill:#ff5023"/><path d="M57,30v8.86a9.991,9.991,0,0,1-2.93,7.07L45,55l-2-2,7.07-7.07A9.991,9.991,0,0,0,53,38.86V30L43,25.83,45,25Z" style="fill:#ffcd00"/><path d="M20,8A12.013,12.013,0,0,0,8,20h2a9.971,9.971,0,0,1,17.059-7.042l1.412-1.416A11.949,11.949,0,0,0,20,8Z"/><path d="M61.352,26.063l-.25-.093A21.369,21.369,0,0,0,62,20,17.967,17.967,0,0,0,32,6.624,17.967,17.967,0,0,0,2,20c0,8.18,4.993,16.718,14.84,25.376a92.138,92.138,0,0,0,14.677,10.5,1,1,0,0,0,.967,0c.068-.037,1.557-.867,3.85-2.355L44.283,61.7a1,1,0,0,0,1.434,0l11.89-12.232A14.541,14.541,0,0,0,62,39V27A1,1,0,0,0,61.352,26.063ZM32,53.848C28.251,51.662,4,36.866,4,20A15.971,15.971,0,0,1,31.294,8.708a1,1,0,0,0,1.412,0A15.971,15.971,0,0,1,60,20a19.263,19.263,0,0,1-.775,5.266l-13.873-5.2a1.015,1.015,0,0,0-.7,0l-16,6A1,1,0,0,0,28,27V39a14.545,14.545,0,0,0,4.388,10.46l2.525,2.6C33.59,52.908,32.563,53.521,32,53.848ZM60,39a12.591,12.591,0,0,1-3.816,9.061L45,59.565l-11.184-11.5-.009-.01A12.579,12.579,0,0,1,30,39V27.693l15-5.625,15,5.625Z"/><path d="M44.615,24.077l-12,5A1,1,0,0,0,32,30v8.857a10.93,10.93,0,0,0,3.222,7.779l9.071,9.071a1,1,0,0,0,1.414,0l9.071-9.071A10.93,10.93,0,0,0,58,38.857V30a1,1,0,0,0-.615-.923l-12-5A1,1,0,0,0,44.615,24.077ZM56,30.667v8.19a8.947,8.947,0,0,1-2.636,6.365L45,53.586l-8.364-8.364A8.947,8.947,0,0,1,34,38.857v-8.19l11-4.584Z"/><path d="M42.172,38.758l-1.414,1.414,3.535,3.535a1,1,0,0,0,1.414,0l8.485-8.485-1.414-1.414L45,41.586Z"/></g></svg>
